<svg id="Layer_1" data-name="Layer 1" xmlns="http://www.w3.org/2000/svg" viewBox="0 0 263.05 141.73"><defs><style>.cls-1{fill:#0a4493}</style></defs><path class="cls-1" d="M4.23 102.3c.6.14.72.5.85 1l.56 2.44H4l-.39-2c-.12-.63-.22-.91-1-.91h-.45l-.62 2.94H0l1.48-7.09h2.83c1 0 2 .45 2 1.55a2.13 2.13 0 0 1-2.08 2.07zm-.73-2.59h-.71l-.44 2.1H3c.75 0 1.7-.19 1.7-1.28.04-.53-.45-.82-1.2-.82zm8.9 2.69l-.7 3.38h-1.47l.68-3.19A3 3 0 0 0 11 102a.61.61 0 0 0-.67-.69c-.81 0-1.19.71-1.35 1.44l-.63 3H6.87l1.61-7.66h1.45l-.68 3.17a2.27 2.27 0 0 1 1.81-1c.83 0 1.44.41 1.44 1.27a3.14 3.14 0 0 1-.1.87zm2.77 1.12a1.45 1.45 0 0 0-.08.5c0 .72.55 1 1.19 1a3.08 3.08 0 0 0 1.62-.49v1a4.47 4.47 0 0 1-2 .41c-1.15 0-2.23-.49-2.23-1.8a3.61 3.61 0 0 1 3.46-3.75c.85 0 1.82.31 1.82 1.28-.06 1.63-2.47 1.85-3.78 1.85zm1.77-2.32c-.8 0-1.38.84-1.64 1.53.95 0 2.28-.17 2.28-1 0-.4-.29-.53-.64-.53zm4 4.58h-1.42l1.11-5.34h1.47zm1.32-6.33h-1.44l.25-1.18h1.47zm6 2.8l-.73 3.53h-1.42l.67-3.21a2.71 2.71 0 0 0 .08-.55.61.61 0 0 0-.69-.69c-.79 0-1.17.71-1.32 1.4l-.64 3h-1.46l.86-4.15a9.23 9.23 0 0 0 .2-1.19h1.37l-.16 1a2.11 2.11 0 0 1 1.9-1c.86 0 1.45.42 1.45 1.3a3.36 3.36 0 0 1-.07.56zm3.9.79h-2.59l.24-1.11h2.62zM39 99.77h-3l-.41 1.87h2.87l-.24 1.07h-2.79l-.43 2h3.09l-.23 1.08h-4.63l1.5-7.09h4.54zm4.52 2a1 1 0 0 0-.43-.08c-1 0-1.49.94-1.67 1.79l-.42 2.3h-1.5l.87-4.15a11.68 11.68 0 0 0 .22-1.18H42l-.2 1.1a2 2 0 0 1 1.73-1.22 1.47 1.47 0 0 1 .42 0zm4.93-2.67A2.09 2.09 0 0 0 48 99c-.58 0-.81.56-.9 1l-.1.44h1.14l-.21 1H46.8l-1 4.59c-.22 1-.79 2.18-2 2.18a5.39 5.39 0 0 1-1.07-.09l.26-1a1.49 1.49 0 0 0 .43 0c.58 0 .83-.78.92-1.24l.94-4.51h-1l.21-1h1l.11-.54A2.07 2.07 0 0 1 47.76 98a3.36 3.36 0 0 1 1 .12zm3.63 2.37H51l-.54 2.49a2.45 2.45 0 0 0 0 .48c0 .32.19.43.48.43a1.62 1.62 0 0 0 .6-.13l-.14 1a4 4 0 0 1-1.25.19 1.06 1.06 0 0 1-1.21-1.11A3.39 3.39 0 0 1 49 104l.55-2.58h-1l.21-1h.95l.29-1.06 1.55-.48-.32 1.56h1.15zm3.5 1.62H53l.23-1.11h2.63zm4.44 2.74h-1.78l-1.05-7.09h1.62l.65 5.58 3-5.58h1.63zm5.41-2.26a1.73 1.73 0 0 0-.07.5c0 .72.54 1 1.18 1a3.08 3.08 0 0 0 1.62-.49v1a4.44 4.44 0 0 1-2 .41c-1.14 0-2.23-.49-2.23-1.8a3.61 3.61 0 0 1 3.46-3.75c.86 0 1.82.31 1.82 1.28-.02 1.58-2.43 1.8-3.74 1.8zm1.78-2.32c-.8 0-1.38.84-1.64 1.53.94 0 2.27-.17 2.27-1 .04-.45-.25-.58-.59-.58zm6.63.52a1 1 0 0 0-.43-.08c-1 0-1.49.94-1.67 1.79l-.49 2.35h-1.43l.88-4.15a11.65 11.65 0 0 0 .21-1.18h1.36l-.2 1.1a2 2 0 0 1 1.73-1.22 1.47 1.47 0 0 1 .42 0zm4 1.14l1.66 2.92h-1.66L76.41 103l-.57 2.8h-1.46L76 98.12h1.45l-.94 4.52 2.26-2.2h1.72zm4.45.66a1.45 1.45 0 0 0-.08.5c0 .72.55 1 1.19 1a3.08 3.08 0 0 0 1.62-.49v1a4.47 4.47 0 0 1-2 .41c-1.15 0-2.23-.49-2.23-1.8a3.61 3.61 0 0 1 3.46-3.75c.85 0 1.82.31 1.82 1.28-.07 1.58-2.47 1.8-3.78 1.8zm1.77-2.32c-.79 0-1.37.84-1.64 1.53 1 0 2.27-.17 2.27-1 0-.45-.28-.58-.63-.58zm8.11 1.2l-.7 3.38H90l.67-3.19a3 3 0 0 0 .07-.57.61.61 0 0 0-.67-.69c-.81 0-1.19.71-1.35 1.44l-.63 3h-1.45l1.61-7.66h1.45l-.7 3.13a2.28 2.28 0 0 1 1.82-1c.82 0 1.44.41 1.44 1.27a2.8 2.8 0 0 1-.09.84zm5.08-.68a1 1 0 0 0-.43-.08c-1 0-1.49.94-1.67 1.79l-.49 2.35h-1.47l.88-4.15c.08-.39.16-.78.21-1.18h1.36l-.2 1.1a2 2 0 0 1 1.73-1.22 1.47 1.47 0 0 1 .42 0zm4.77-.21a3.13 3.13 0 0 0-1.29-.3c-.42 0-1.09.14-1.09.67 0 .78 2.23.78 2.23 2.19s-1.45 1.82-2.61 1.82a5.33 5.33 0 0 1-1.69-.26l.29-1a2.8 2.8 0 0 0 1.38.37c.46 0 1.21-.18 1.21-.75 0-.83-2.21-.78-2.21-2.2s1.49-1.72 2.56-1.72a5 5 0 0 1 1.53.25zm6 3.56c-.47 2.14-1.25 3.12-3.59 3.12a5.82 5.82 0 0 1-1.83-.3l.29-1a3.07 3.07 0 0 0 1.51.36 1.92 1.92 0 0 0 2.07-1.7l.16-.7a2.11 2.11 0 0 1-1.9 1 1.47 1.47 0 0 1-1.61-1.58 4 4 0 0 1 4.19-3.86 6.47 6.47 0 0 1 1.7.23zm-1-3.74a2.64 2.64 0 0 0-2.34 2.74c0 .48.17.83.69.83 1 0 1.53-1.28 1.75-2.22l.31-1.29a1.45 1.45 0 0 0-.43-.11zm4.45 2.19a1.74 1.74 0 0 0-.08.5c0 .72.55 1 1.19 1a3.08 3.08 0 0 0 1.62-.49v1a4.44 4.44 0 0 1-2 .41c-1.15 0-2.23-.49-2.23-1.8a3.61 3.61 0 0 1 3.46-3.75c.85 0 1.82.31 1.82 1.28-.12 1.58-2.53 1.8-3.84 1.8zm1.78-2.32c-.8 0-1.38.84-1.64 1.53.94 0 2.27-.17 2.27-1-.06-.45-.34-.58-.69-.58zm6.84.31a3.12 3.12 0 0 0-1.28-.3c-.42 0-1.09.14-1.09.67 0 .78 2.23.78 2.23 2.19s-1.46 1.82-2.61 1.82a5.44 5.44 0 0 1-1.7-.26l.3-1a2.77 2.77 0 0 0 1.38.37c.46 0 1.21-.18 1.21-.75 0-.83-2.21-.78-2.21-2.2s1.49-1.72 2.55-1.72a5.07 5.07 0 0 1 1.54.25zm2.66 2a1.73 1.73 0 0 0-.07.5c0 .72.55 1 1.19 1a3.08 3.08 0 0 0 1.62-.49l-.05 1a4.47 4.47 0 0 1-2 .41c-1.15 0-2.23-.49-2.23-1.8a3.61 3.61 0 0 1 3.46-3.75c.85 0 1.82.31 1.82 1.28-.07 1.59-2.49 1.81-3.8 1.81zm1.78-2.32c-.8 0-1.38.84-1.64 1.53 1 0 2.27-.17 2.27-1-.06-.44-.34-.57-.69-.57zm4 4.58h-1.46l1.61-7.66h1.46zm3.3 0h-1.46l1.63-7.7h1.46zm6.11-4.27a3.12 3.12 0 0 0-1.28-.3c-.42 0-1.1.14-1.1.67 0 .78 2.23.78 2.23 2.19s-1.45 1.82-2.6 1.82a5.44 5.44 0 0 1-1.7-.26l.3-1a2.77 2.77 0 0 0 1.38.37c.46 0 1.21-.18 1.21-.75 0-.83-2.21-.78-2.21-2.2s1.49-1.72 2.55-1.72a5 5 0 0 1 1.54.25zm5.79.07a2.33 2.33 0 0 0-1.1-.25 2.19 2.19 0 0 0-2 2.28 1.22 1.22 0 0 0 1.23 1.3 3 3 0 0 0 1.25-.26l-.17 1a5.48 5.48 0 0 1-1.61.21 2 2 0 0 1-2.23-2 3.34 3.34 0 0 1 3.46-3.54 4.72 4.72 0 0 1 1.45.22zm6.16.82l-.7 3.38h-1.49l.68-3.19a3 3 0 0 0 .07-.57.61.61 0 0 0-.67-.69c-.81 0-1.19.71-1.35 1.44l-.63 3h-1.46l1.66-7.69h1.45l-.68 3.17a2.27 2.27 0 0 1 1.81-1c.82 0 1.45.41 1.45 1.27a3.22 3.22 0 0 1-.16.84zm6.37 1.49a9.82 9.82 0 0 0-.25 1.89h-1.48c0-.27.11-.77.2-1.26a2.31 2.31 0 0 1-2 1.37 1.52 1.52 0 0 1-1.6-1.69 4 4 0 0 1 4.12-3.87 6.2 6.2 0 0 1 1.77.24zm-1.31-2.57a2.64 2.64 0 0 0-2.32 2.71c0 .48.17.88.72.88.74 0 1.44-1 1.73-2.3l.29-1.23a1.26 1.26 0 0 0-.44-.1zm7.15-2.27a2.09 2.09 0 0 0-.48-.08c-.58 0-.81.56-.91 1l-.09.44h1.13l-.21 1h-1.14l-1 4.59c-.22 1-.8 2.18-2 2.18a5.36 5.36 0 0 1-1.06-.09l.25-1a1.58 1.58 0 0 0 .43 0c.58 0 .84-.78.93-1.24l.93-4.51h-1l.21-1h1l.11-.54a2.07 2.07 0 0 1 2.15-1.84 3.32 3.32 0 0 1 1 .12zm3.64 2.37h-1.15l-.53 2.49a2.45 2.45 0 0 0 0 .48c0 .32.18.43.48.43a1.62 1.62 0 0 0 .6-.13l-.15 1a3.89 3.89 0 0 1-1.24.19c-.7 0-1.21-.33-1.21-1.11a4 4 0 0 1 .08-.78l.55-2.58h-1l.21-1h.95l.22-1.08 1.56-.48-.33 1.56h1.16zm11.65.9l-.71 3.46h-1.45l.7-3.39a2.3 2.3 0 0 0 .05-.45c0-.42-.22-.61-.63-.61-.72 0-1.14.77-1.27 1.4l-.63 3H172l.7-3.39a2.3 2.3 0 0 0 0-.45c0-.43-.21-.61-.63-.61-.71 0-1.13.78-1.26 1.4l-.63 3h-1.46l.86-4.15a11.36 11.36 0 0 0 .2-1.19h1.37l-.15.93a2 2 0 0 1 1.88-1 1.17 1.17 0 0 1 1.29 1.08 2.15 2.15 0 0 1 1.86-1.08 1.25 1.25 0 0 1 1.41 1.3 3.85 3.85 0 0 1-.07.71zm4 3.57a1.34 1.34 0 0 1-1.44-1.08l-.22 1h-1.34l1.61-7.73h1.45l-.67 3.15a2.16 2.16 0 0 1 1.8-.93 1.69 1.69 0 0 1 1.68 1.93c-.01 1.73-1.07 3.62-2.88 3.62zm.5-4.56c-1.09 0-1.6 1.59-1.6 2.48 0 .55.2 1.1.84 1.1 1.12 0 1.59-1.66 1.59-2.57-.01-.6-.21-1.05-.84-1.05zm9.09 4.45h-1.54l.64-3h-2.76l-.63 3h-1.55l1.5-7.09h1.54l-.59 2.84h2.74l.6-2.84h1.54zM38.49 67.67c4.88 1.2 5.63 3.83 6.61 8.11l3.76 15.85H33.38l-2.33-12.77c-.75-4.06-1-6.31-6.23-6.31h-3.16l-4 19.08H3l10.62-50.11h25.1c6.91 0 15.28 2.86 15.28 11.35 0 9.99-8.67 13.67-15.51 14.8zm-7.36-17.14h-5l-2.7 13h4.77c5 0 10.74-1.27 10.74-7.81 0-3.91-3.68-5.19-7.81-5.19zm68.81.91H77.33l-2.26 10h21.57l-2 9.77H73.05l-2.33 10.5H94l-2.1 9.92h-38l10.66-50.11h37.49zm28.85 40.19h-17.36l-7.51-50.11h15.48l3.68 36 19-36h15.47zm69.56-38.09a24.1 24.1 0 0 0-11.64-2.85c-12.1 0-20.29 7.73-20.29 19.83 0 6.39 2.93 12 10.67 12a18.39 18.39 0 0 0 6-.9l1.43-6.84h-4.66l1.95-9.09h17.51l-5.1 23.91a67.46 67.46 0 0 1-19.61 2.86C161.39 92.46 151 84.87 151 72c0-21.19 15.7-31.18 34.64-31.18a44.16 44.16 0 0 1 15.77 2.4z"/><path d="M242.29 20.76a70.86 70.86 0 0 0-100.22 0l.66.66a60.24 60.24 0 1 1 0 98.9l-.66.66A70.87 70.87 0 0 0 242.29 20.76z" fill="#ff5900"/></svg>